<svg width="505" height="249" viewBox="0 0 505 249" fill="none" xmlns="http://www.w3.org/2000/svg">
<g style="mix-blend-mode:soft-light">
<g filter="url(#filter0_d_69_25)">
<path d="M252.35 44.1C301.211 44.1 346.144 49.1872 379.462 57.7792C395.968 62.0359 410.773 67.4397 421.934 74.2448C431.911 80.3278 445.2 91.4382 445.2 108.85C445.2 126.262 431.911 137.372 421.934 143.455C410.773 150.26 395.968 155.664 379.462 159.921C346.144 168.513 301.211 173.6 252.35 173.6C203.489 173.6 158.556 168.513 125.238 159.921C108.732 155.664 93.9274 150.26 82.7659 143.455C72.7888 137.372 59.5 126.262 59.5 108.85C59.5 91.4382 72.7888 80.3278 82.7659 74.2448C93.9274 67.4397 108.732 62.0359 125.238 57.7792C158.556 49.1872 203.489 44.1 252.35 44.1ZM252.35 84.5691C205.876 84.5691 164.498 89.4467 135.339 96.9661C120.608 100.765 110.132 104.954 103.823 108.8C103.796 108.816 103.769 108.833 103.742 108.85C103.769 108.867 103.796 108.884 103.823 108.9C110.132 112.746 120.608 116.935 135.339 120.734C164.498 128.253 205.876 133.132 252.35 133.132C298.824 133.132 340.202 128.253 369.361 120.734C384.092 116.935 394.568 112.746 400.877 108.9C400.903 108.884 400.931 108.866 400.957 108.85C400.931 108.834 400.903 108.816 400.877 108.8C394.568 104.954 384.092 100.765 369.361 96.9661C340.202 89.4467 298.824 84.5691 252.35 84.5691Z" fill="url(#paint0_linear_69_25)"></path>
</g>
</g>
<defs>
<filter id="filter0_d_69_25" x="36.5" y="43.1" width="431.7" height="175.5" filterUnits="userSpaceOnUse" color-interpolation-filters="sRGB">
<feFlood flood-opacity="0" result="BackgroundImageFix"></feFlood>
<feColorMatrix in="SourceAlpha" type="matrix" values="0 0 0 0 0 0 0 0 0 0 0 0 0 0 0 0 0 0 127 0" result="hardAlpha"></feColorMatrix>
<feOffset dy="22"></feOffset>
<feGaussianBlur stdDeviation="11.5"></feGaussianBlur>
<feComposite in2="hardAlpha" operator="out"></feComposite>
<feColorMatrix type="matrix" values="0 0 0 0 0.896875 0 0 0 0 0.800309 0 0 0 0 0.591377 0 0 0 1 0"></feColorMatrix>
<feBlend mode="normal" in2="BackgroundImageFix" result="effect1_dropShadow_69_25"></feBlend>
<feBlend mode="normal" in="SourceGraphic" in2="effect1_dropShadow_69_25" result="shape"></feBlend>
</filter>
<linearGradient id="paint0_linear_69_25" x1="252.35" y1="44.1" x2="252.35" y2="173.6" gradientUnits="userSpaceOnUse">
<stop stop-color="#FFD97A"></stop>
<stop offset="1" stop-color="#E8B84B"></stop>
</linearGradient>
</defs>
</svg>