<?xml version="1.0" encoding="UTF-8"?>
<!--Generator: Apple Native CoreSVG 362-->
<!DOCTYPE svg
PUBLIC "-//W3C//DTD SVG 1.1//EN"
       "http://www.w3.org/Graphics/SVG/1.1/DTD/svg11.dtd">
<svg version="1.1" xmlns="http://www.w3.org/2000/svg" xmlns:xlink="http://www.w3.org/1999/xlink" viewBox="0 0 3300 2200">
 <!--glyph: "", point size: 100.0, font version: "21.1d1e1", template writer version: "138.0.0"-->
 <style>.defaults {-sfsymbols-draw-reverses-motion-groups:false}

.monochrome-0 {-sfsymbols-motion-group:1;-sfsymbols-indices:0 1;-sfsymbols-layer-tags:-17335d2e901320d _enclosure.stroke square}
.monochrome-1 {-sfsymbols-motion-group:0;-sfsymbols-always-pulses:true;-sfsymbols-layer-tags:-17335d2e901320d}

.multicolor-0:tintColor {-sfsymbols-motion-group:1;-sfsymbols-indices:0 1;-sfsymbols-layer-tags:-17335d2e901320d _enclosure.stroke square}
.multicolor-1:tintColor {-sfsymbols-motion-group:0;-sfsymbols-always-pulses:true;-sfsymbols-layer-tags:-17335d2e901320d}

.hierarchical-0:secondary {-sfsymbols-motion-group:1;-sfsymbols-indices:0 1;-sfsymbols-layer-tags:-17335d2e901320d _enclosure.stroke square}
.hierarchical-1:primary {-sfsymbols-motion-group:0;-sfsymbols-always-pulses:true;-sfsymbols-layer-tags:-17335d2e901320d}

.shapeGroupLayer-0 {-sfsymbols-fill-action:draw;-sfsymbols-indices:3 4}
.shapeGroupLayer-1 {-sfsymbols-fill-action:erase;-sfsymbols-indices:2}
.shapeGroupLayer-2 {-sfsymbols-fill-action:draw;-sfsymbols-indices:5}

.SFSymbolsPreviewWireframe {fill:none;opacity:1.0;stroke:black;stroke-width:0.5}
</style>
 <g id="Notes">
  <rect height="2200" id="artboard" style="fill:white;opacity:1" width="3300" x="0" y="0"/>
  <line style="fill:none;stroke:black;opacity:1;stroke-width:0.5;" x1="263" x2="3036" y1="292" y2="292"/>
  <text style="stroke:none;fill:black;font-family:sans-serif;font-size:13;font-weight:bold;" transform="matrix(1 0 0 1 263 322)">Weight/Scale Variations</text>
  <text style="stroke:none;fill:black;font-family:sans-serif;font-size:13;text-anchor:middle;" transform="matrix(1 0 0 1 559.711 322)">Ultralight</text>
  <text style="stroke:none;fill:black;font-family:sans-serif;font-size:13;text-anchor:middle;" transform="matrix(1 0 0 1 856.422 322)">Thin</text>
  <text style="stroke:none;fill:black;font-family:sans-serif;font-size:13;text-anchor:middle;" transform="matrix(1 0 0 1 1153.13 322)">Light</text>
  <text style="stroke:none;fill:black;font-family:sans-serif;font-size:13;text-anchor:middle;" transform="matrix(1 0 0 1 1449.84 322)">Regular</text>
  <text style="stroke:none;fill:black;font-family:sans-serif;font-size:13;text-anchor:middle;" transform="matrix(1 0 0 1 1746.56 322)">Medium</text>
  <text style="stroke:none;fill:black;font-family:sans-serif;font-size:13;text-anchor:middle;" transform="matrix(1 0 0 1 2043.27 322)">Semibold</text>
  <text style="stroke:none;fill:black;font-family:sans-serif;font-size:13;text-anchor:middle;" transform="matrix(1 0 0 1 2339.98 322)">Bold</text>
  <text style="stroke:none;fill:black;font-family:sans-serif;font-size:13;text-anchor:middle;" transform="matrix(1 0 0 1 2636.69 322)">Heavy</text>
  <text style="stroke:none;fill:black;font-family:sans-serif;font-size:13;text-anchor:middle;" transform="matrix(1 0 0 1 2933.4 322)">Black</text>
  <line style="fill:none;stroke:black;opacity:1;stroke-width:0.5;" x1="263" x2="3036" y1="1903" y2="1903"/>
  <g transform="matrix(0.2 0 0 0.2 263 1933)">
   <path d="m46.2402 4.15039c21.7773 0 39.4531-17.627 39.4531-39.4043s-17.6758-39.4043-39.4531-39.4043c-21.7285 0-39.4043 17.627-39.4043 39.4043s17.6758 39.4043 39.4043 39.4043Zm0-7.42188c-17.6758 0-31.9336-14.3066-31.9336-31.9824s14.2578-31.9824 31.9336-31.9824 31.9824 14.3066 31.9824 31.9824-14.3066 31.9824-31.9824 31.9824Zm3.61328-17.7734v-28.4668c0-2.24609-1.46484-3.75977-3.71094-3.75977-2.14844 0-3.61328 1.51367-3.61328 3.75977v28.4668c0 2.19727 1.46484 3.71094 3.61328 3.71094 2.24609 0 3.71094-1.51367 3.71094-3.71094Zm-17.8223-10.5957h28.418c2.19727 0 3.71094-1.46484 3.71094-3.61328 0-2.19727-1.51367-3.71094-3.71094-3.71094h-28.418c-2.24609 0-3.75977 1.51367-3.75977 3.71094 0 2.14844 1.51367 3.61328 3.75977 3.61328Z"/>
  </g>
  <g transform="matrix(0.2 0 0 0.2 281.506 1933)">
   <path d="m58.5449 14.5508c27.4902 0 49.8047-22.3145 49.8047-49.8047s-22.3145-49.8047-49.8047-49.8047-49.8047 22.3145-49.8047 49.8047 22.3145 49.8047 49.8047 49.8047Zm0-8.30078c-22.9492 0-41.5039-18.5547-41.5039-41.5039s18.5547-41.5039 41.5039-41.5039 41.5039 18.5547 41.5039 41.5039-18.5547 41.5039-41.5039 41.5039Zm4.05273-23.0957v-36.9141c0-2.49023-1.70898-4.19922-4.15039-4.19922-2.39258 0-4.05273 1.70898-4.05273 4.19922v36.9141c0 2.44141 1.66016 4.15039 4.05273 4.15039 2.44141 0 4.15039-1.66016 4.15039-4.15039Zm-22.5586-14.4043h36.9629c2.44141 0 4.15039-1.61133 4.15039-4.00391 0-2.44141-1.70898-4.15039-4.15039-4.15039h-36.9629c-2.49023 0-4.15039 1.70898-4.15039 4.15039 0 2.39258 1.66016 4.00391 4.15039 4.00391Z"/>
  </g>
  <g transform="matrix(0.2 0 0 0.2 304.924 1933)">
   <path d="m74.8535 28.3203c35.1074 0 63.623-28.4668 63.623-63.5742s-28.5156-63.623-63.623-63.623-63.5742 28.5156-63.5742 63.623 28.4668 63.5742 63.5742 63.5742Zm0-9.08203c-30.127 0-54.4922-24.3652-54.4922-54.4922s24.3652-54.4922 54.4922-54.4922 54.4922 24.3652 54.4922 54.4922-24.3652 54.4922-54.4922 54.4922Zm4.44336-30.3223v-48.4863c0-2.73438-1.85547-4.63867-4.54102-4.63867-2.58789 0-4.44336 1.9043-4.44336 4.63867v48.4863c0 2.68555 1.85547 4.58984 4.44336 4.58984 2.68555 0 4.54102-1.85547 4.54102-4.58984Zm-28.7109-19.7754h48.4863c2.68555 0 4.58984-1.80664 4.58984-4.39453 0-2.73438-1.85547-4.58984-4.58984-4.58984h-48.4863c-2.73438 0-4.58984 1.85547-4.58984 4.58984 0 2.58789 1.85547 4.39453 4.58984 4.39453Z"/>
  </g>
  <text style="stroke:none;fill:black;font-family:sans-serif;font-size:13;font-weight:bold;" transform="matrix(1 0 0 1 263 1953)">Design Variations</text>
  <text style="stroke:none;fill:black;font-family:sans-serif;font-size:13;" transform="matrix(1 0 0 1 263 1971)">Symbols are supported in up to nine weights and three scales.</text>
  <text style="stroke:none;fill:black;font-family:sans-serif;font-size:13;" transform="matrix(1 0 0 1 263 1989)">For optimal layout with text and other symbols, vertically align</text>
  <text style="stroke:none;fill:black;font-family:sans-serif;font-size:13;" transform="matrix(1 0 0 1 263 2007)">symbols with the adjacent text.</text>
  <line style="fill:none;stroke:#00AEEF;stroke-width:0.5;opacity:1.0;" x1="776" x2="776" y1="1919" y2="1933"/>
  <g transform="matrix(0.2 0 0 0.2 776 1933)">
   <path d="m16.5527 0.78125c2.58789 0 3.85742-0.976562 4.78516-3.71094l20.5566-57.5195h0.244141l20.6055 57.5195c0.927734 2.73438 2.19727 3.71094 4.73633 3.71094 2.58789 0 4.24805-1.5625 4.24805-4.00391 0-0.830078-0.146484-1.61133-0.537109-2.63672l-22.9004-60.9863c-1.12305-2.97852-3.125-4.49219-6.25-4.49219-3.02734 0-5.07812 1.46484-6.15234 4.44336l-22.9004 61.084c-0.390625 1.02539-0.537109 1.80664-0.537109 2.63672 0 2.44141 1.5625 3.95508 4.10156 3.95508Zm10.2051-20.9473h30.6641c2.00195 0 3.66211-1.66016 3.66211-3.66211 0-2.05078-1.66016-3.66211-3.66211-3.66211h-30.6641c-2.00195 0-3.66211 1.61133-3.66211 3.66211 0 2.00195 1.66016 3.66211 3.66211 3.66211Z"/>
  </g>
  <line style="fill:none;stroke:#00AEEF;stroke-width:0.5;opacity:1.0;" x1="792.836" x2="792.836" y1="1919" y2="1933"/>
  <text style="stroke:none;fill:black;font-family:sans-serif;font-size:13;font-weight:bold;" transform="matrix(1 0 0 1 776 1953)">Margins</text>
  <text style="stroke:none;fill:black;font-family:sans-serif;font-size:13;" transform="matrix(1 0 0 1 776 1971)">Leading and trailing margins on the left and right side of each symbol</text>
  <text style="stroke:none;fill:black;font-family:sans-serif;font-size:13;" transform="matrix(1 0 0 1 776 1989)">can be adjusted by modifying the x-location of the margin guidelines.</text>
  <text style="stroke:none;fill:black;font-family:sans-serif;font-size:13;" transform="matrix(1 0 0 1 776 2007)">Modifications are automatically applied proportionally to all</text>
  <text style="stroke:none;fill:black;font-family:sans-serif;font-size:13;" transform="matrix(1 0 0 1 776 2025)">scales and weights.</text>
  <g transform="matrix(0.2 0 0 0.2 1289 1933)">
   <path d="m14.209 13.1348 7.86133 7.86133c4.29688 4.39453 9.32617 4.10156 13.8672-1.02539l60.6934-68.2129-4.88281-4.88281-60.2539 67.6758c-1.80664 1.95312-3.4668 2.44141-5.81055 0.0976562l-5.17578-5.12695c-2.29492-2.29492-1.80664-3.95508 0.195312-5.81055l67.4805-62.1582-4.88281-4.83398-68.0664 62.5977c-4.98047 4.58984-5.32227 9.47266-1.02539 13.8184Zm44.873-97.4609c-2.05078 2.00195-2.24609 4.88281-1.07422 6.78711 1.12305 1.80664 3.4668 3.02734 6.5918 2.24609 5.85938-1.66016 12.5977-2.39258 18.8965 0.927734l-2.68555 7.12891c-1.61133 4.00391-0.732422 6.88477 1.70898 9.42383l10.2539 10.3027c2.34375 2.39258 4.54102 2.44141 7.08008 1.95312l4.44336-0.732422 2.58789 2.53906-0.195312 2.24609c-0.0976562 2.29492 0.537109 4.29688 2.7832 6.49414l3.36914 3.32031c2.29492 2.29492 5.51758 2.49023 7.8125 0.195312l12.9883-13.0371c2.29492-2.34375 2.14844-5.37109-0.195312-7.66602l-3.41797-3.41797c-2.19727-2.19727-4.05273-3.02734-6.34766-2.88086l-2.34375 0.244141-2.44141-2.44141 1.02539-4.6875c0.634766-2.73438-0.244141-4.98047-2.88086-7.61719l-11.2793-11.1816c-12.9395-12.8418-35.5957-11.0352-46.6797-0.146484Zm7.08008 2.05078c8.78906-6.39648 25.9766-5.66406 33.6914 1.95312l12.3047 12.207c1.02539 1.02539 1.2207 1.80664 0.927734 3.32031l-1.46484 6.64062 6.73828 6.68945 4.39453-0.244141c1.12305-0.0488281 1.51367 0.0488281 2.34375 0.878906l2.53906 2.49023-10.8398 10.8398-2.49023-2.49023c-0.830078-0.878906-0.976562-1.2207-0.927734-2.39258l0.292969-4.3457-6.68945-6.73828-6.83594 1.17188c-1.41602 0.292969-2.05078 0.195312-3.17383-0.878906l-8.93555-8.88672c-1.07422-1.02539-1.17188-1.70898-0.488281-3.36914l4.58984-11.4746c-6.10352-6.34766-17.041-7.51953-25.5859-4.58984-0.683594 0.244141-0.927734-0.390625-0.390625-0.78125Z"/>
  </g>
  <text style="stroke:none;fill:black;font-family:sans-serif;font-size:13;font-weight:bold;" transform="matrix(1 0 0 1 1289 1953)">Exporting</text>
  <text style="stroke:none;fill:black;font-family:sans-serif;font-size:13;" transform="matrix(1 0 0 1 1289 1971)">Symbols should be outlined when exporting to ensure the</text>
  <text style="stroke:none;fill:black;font-family:sans-serif;font-size:13;" transform="matrix(1 0 0 1 1289 1989)">design is preserved when submitting to Xcode.</text>
  <text id="template-version" style="stroke:none;fill:black;font-family:sans-serif;font-size:13;text-anchor:end;" transform="matrix(1 0 0 1 3036 1933)">Template v.6.0</text>
  <text style="stroke:none;fill:black;font-family:sans-serif;font-size:13;text-anchor:end;" transform="matrix(1 0 0 1 3036 1951)">Requires Xcode 16 or greater</text>
  <text id="descriptive-name" style="stroke:none;fill:black;font-family:sans-serif;font-size:13;text-anchor:end;" transform="matrix(1 0 0 1 3036 1969)">Generated from square</text>
  <text style="stroke:none;fill:black;font-family:sans-serif;font-size:13;text-anchor:end;" transform="matrix(1 0 0 1 3036 1987)">Typeset at 100.0 points</text>
  <text style="stroke:none;fill:black;font-family:sans-serif;font-size:13;" transform="matrix(1 0 0 1 263 726)">Small</text>
  <text style="stroke:none;fill:black;font-family:sans-serif;font-size:13;" transform="matrix(1 0 0 1 263 1156)">Medium</text>
  <text style="stroke:none;fill:black;font-family:sans-serif;font-size:13;" transform="matrix(1 0 0 1 263 1586)">Large</text>
 </g>
 <g id="Guides">
  <g id="H-reference" style="fill:#27AAE1;stroke:none;" transform="matrix(1 0 0 1 339 696)">
   <path d="M0.993654 0L3.63775 0L29.3281-67.1323L30.0303-67.1323L30.0303-70.459L28.1226-70.459ZM11.6885-24.4799L46.9815-24.4799L46.2315-26.7285L12.4385-26.7285ZM55.1196 0L57.7637 0L30.6382-70.459L29.4326-70.459L29.4326-67.1323Z"/>
  </g>
  <line id="Baseline-S" style="fill:none;stroke:#27AAE1;opacity:1;stroke-width:0.5;" x1="263" x2="3036" y1="696" y2="696"/>
  <line id="Capline-S" style="fill:none;stroke:#27AAE1;opacity:1;stroke-width:0.5;" x1="263" x2="3036" y1="625.541" y2="625.541"/>
  <g id="H-reference" style="fill:#27AAE1;stroke:none;" transform="matrix(1 0 0 1 339 1126)">
   <path d="M0.993654 0L3.63775 0L29.3281-67.1323L30.0303-67.1323L30.0303-70.459L28.1226-70.459ZM11.6885-24.4799L46.9815-24.4799L46.2315-26.7285L12.4385-26.7285ZM55.1196 0L57.7637 0L30.6382-70.459L29.4326-70.459L29.4326-67.1323Z"/>
  </g>
  <line id="Baseline-M" style="fill:none;stroke:#27AAE1;opacity:1;stroke-width:0.5;" x1="263" x2="3036" y1="1126" y2="1126"/>
  <line id="Capline-M" style="fill:none;stroke:#27AAE1;opacity:1;stroke-width:0.5;" x1="263" x2="3036" y1="1055.54" y2="1055.54"/>
  <g id="H-reference" style="fill:#27AAE1;stroke:none;" transform="matrix(1 0 0 1 339 1556)">
   <path d="M0.993654 0L3.63775 0L29.3281-67.1323L30.0303-67.1323L30.0303-70.459L28.1226-70.459ZM11.6885-24.4799L46.9815-24.4799L46.2315-26.7285L12.4385-26.7285ZM55.1196 0L57.7637 0L30.6382-70.459L29.4326-70.459L29.4326-67.1323Z"/>
  </g>
  <line id="Baseline-L" style="fill:none;stroke:#27AAE1;opacity:1;stroke-width:0.5;" x1="263" x2="3036" y1="1556" y2="1556"/>
  <line id="Capline-L" style="fill:none;stroke:#27AAE1;opacity:1;stroke-width:0.5;" x1="263" x2="3036" y1="1485.54" y2="1485.54"/>
  <line id="right-margin-Black-S" style="fill:none;stroke:#00AEEF;stroke-width:0.5;opacity:1.0;" x1="2981.3" x2="2981.3" y1="600.785" y2="720.121"/>
  <line id="left-margin-Black-S" style="fill:none;stroke:#00AEEF;stroke-width:0.5;opacity:1.0;" x1="2885.5" x2="2885.5" y1="600.785" y2="720.121"/>
  <line id="right-margin-Regular-S" style="fill:none;stroke:#00AEEF;stroke-width:0.5;opacity:1.0;" x1="1495.18" x2="1495.18" y1="600.785" y2="720.121"/>
  <line id="left-margin-Regular-S" style="fill:none;stroke:#00AEEF;stroke-width:0.5;opacity:1.0;" x1="1404.51" x2="1404.51" y1="600.785" y2="720.121"/>
  <line id="right-margin-Ultralight-S" style="fill:none;stroke:#00AEEF;stroke-width:0.5;opacity:1.0;" x1="603.073" x2="603.073" y1="600.785" y2="720.121"/>
  <line id="left-margin-Ultralight-S" style="fill:none;stroke:#00AEEF;stroke-width:0.5;opacity:1.0;" x1="516.35" x2="516.35" y1="600.785" y2="720.121"/>
 </g>
 <g id="Symbols">
  <g id="Black-S" transform="matrix(1 0 0 1 2885.5 696)">
   <path class="SFSymbolsPreviewWireframe" d="M25 2.88086L70.8008 2.88086C80.3711 2.88086 86.0352-2.7832 86.0352-12.3535L86.0352-58.1543C86.0352-67.7246 80.3711-73.3887 70.8008-73.3887L25-73.3887C15.4297-73.3887 9.76562-67.7246 9.76562-58.1543L9.76562-12.3535C9.76562-2.7832 15.4297 2.88086 25 2.88086ZM27.2461-11.2793C25-11.2793 23.9258-12.1582 23.9258-14.5996L23.9258-55.9082C23.9258-58.3496 25-59.2285 27.2461-59.2285L68.5547-59.2285C70.8008-59.2285 71.875-58.3496 71.875-55.9082L71.875-14.5996C71.875-12.1582 70.8008-11.2793 68.5547-11.2793ZM64.2618-13.4178C66.2387-11.4683 69.4883-11.4683 71.4104-13.4727C73.2716-15.3932 73.3918-18.5605 71.383-20.5694L33.4168-58.5082C31.4323-60.4896 28.2147-60.4836 26.2393-58.5082C24.2883-56.5541 24.2883-53.3091 26.2393-51.3551ZM38.3672-24.779L43.4227-24.779C43.4598-24.779 43.5105-24.794 43.5916-24.7083L50.5378-18.5029C52.0538-17.1544 53.1969-16.5477 54.7786-16.5477C57.2668-16.5477 59.2122-18.4721 59.2122-20.9647L59.2122-49.4713C59.2122-51.9655 57.2668-53.8778 54.7817-53.8778C53.3155-53.8778 52.1027-53.3366 50.5378-51.9317L43.5916-45.7792C43.4816-45.6935 43.4598-45.6737 43.4227-45.6737L38.3672-45.6737C34.2233-45.6737 31.9102-43.2294 31.9102-38.9514L31.9102-31.5117C31.9102-27.2322 34.2203-24.779 38.3672-24.779ZM39.8608-31.8769C39.7095-31.8769 39.5397-32.0726 39.5397-32.1919L39.5397-38.2667C39.5397-38.3845 39.7095-38.5787 39.8608-38.5787L44.9914-38.5787C45.6382-38.5787 46.0882-38.7387 46.5246-39.1507L51.0528-43.3575C51.114-43.4217 51.2086-43.4296 51.2882-43.4296C51.4576-43.4296 51.5782-43.306 51.5782-43.1137L51.5782-27.2784C51.5782-27.0907 51.4576-26.9381 51.2837-26.9381C51.1936-26.9381 51.099-26.987 51.0498-27.0406L46.5246-31.3049C46.0851-31.7244 45.6382-31.8769 44.9914-31.8769ZM66.46-15.6479C67.2082-14.9285 68.4335-14.8996 69.1544-15.6479C69.8692-16.3901 69.8997-17.5941 69.1544-18.3393L31.1897-56.2766C30.4384-57.0294 29.2131-57.0218 28.4678-56.2766C27.75-55.5587 27.75-54.3045 28.4678-53.5866Z" data-clipstroke-keyframes="0 4 0 0.5813326 1.389793 0 0.07528441 0.5060482 1.5011075 0 0.17582974 0.4055029 1.5288504 0 0.3240111 0.25732154 1.7503045 0 0.42503393 0.1562987 1.777507 0 0.57241946 0.008913164 1.9978433 0 0.67710304 0.9042296 1.0304488 0 0.8225786 0.758754 1.248706 0 0.9282172 0.65311545 1.2821741 0 1 0.5813326 1.3893617"/>
  </g>
  <g id="Regular-S" transform="matrix(1 0 0 1 1404.51 696)">
   <path class="SFSymbolsPreviewWireframe" d="M22.2168 0.390625L68.457 0.390625C76.8066 0.390625 80.9082-3.71094 80.9082-11.9141L80.9082-58.4961C80.9082-66.6992 76.8066-70.8008 68.457-70.8008L22.2168-70.8008C13.916-70.8008 9.76562-66.6992 9.76562-58.4961L9.76562-11.9141C9.76562-3.71094 13.916 0.390625 22.2168 0.390625ZM22.3145-6.68945C18.7988-6.68945 16.7969-8.59375 16.7969-12.2559L16.7969-58.1543C16.7969-61.8652 18.7988-63.7207 22.3145-63.7207L68.3594-63.7207C71.875-63.7207 73.877-61.8652 73.877-58.1543L73.877-12.2559C73.877-8.59375 71.875-6.68945 68.3594-6.68945ZM60.5421-13.968C62.3194-12.2167 65.22-12.2167 66.9452-14.02C68.6446-15.7592 68.6808-18.5817 66.9192-20.3727L31.5972-55.6687C29.8305-57.4338 26.9437-57.4305 25.1819-55.6687C23.4445-53.9297 23.4445-51.0169 25.1819-49.2779ZM35.7063-26.1691L40.9349-26.1691C41.018-26.1691 41.1233-26.1478 41.2267-26.0566L49.0455-19.0413C50.3017-17.9429 51.2252-17.4453 52.477-17.4453C54.3093-17.4453 55.7303-18.8256 55.7303-20.6749L55.7303-49.6869C55.7303-51.5223 54.3093-52.9844 52.4493-52.9844C51.2459-52.9844 50.38-52.5004 49.0455-51.305L41.2267-44.4031C41.1111-44.3119 41.018-44.2752 40.9349-44.2752L35.7063-44.2752C32.3201-44.2752 30.5173-42.4044 30.5173-38.8308L30.5173-31.6045C30.5173-28.0448 32.3185-26.1691 35.7063-26.1691ZM36.4344-31.0224C35.9937-31.0224 35.7386-31.288 35.7386-31.715L35.7386-38.7326C35.7386-39.144 35.9937-39.4235 36.4344-39.4235L42.1459-39.4235C42.6988-39.4235 43.0998-39.5331 43.5377-39.9465L50.0087-45.8583C50.0755-45.9267 50.1715-45.9568 50.2594-45.9568C50.4148-45.9568 50.5213-45.8487 50.5213-45.6844L50.5213-24.7454C50.5213-24.5689 50.4148-24.4486 50.2717-24.4486C50.1634-24.4486 50.0673-24.4974 50.0071-24.5748L43.5377-30.4994C43.0982-30.9021 42.6988-31.0224 42.1459-31.0224ZM62.4664-15.906C63.1701-15.2144 64.3189-15.2022 64.9967-15.906C65.6712-16.6065 65.6988-17.7326 64.9967-18.4347L29.6607-53.7446C28.9553-54.4361 27.8065-54.4468 27.1044-53.7446C26.4283-53.0685 26.4283-51.8781 27.1044-51.202Z" data-clipstroke-keyframes="0 4 0 0.58711904 1.3950014 0 0.08690565 0.50021344 1.5003738 0 0.1636695 0.42344958 1.5405743 0 0.3375686 0.24955045 1.7510426 0 0.4134775 0.17364156 1.7900383 0 0.5837243 0.0033947518 1.9963158 0 0.66503745 0.92208165 1.0419433 0 0.83534575 0.75177336 1.2484162 0 0.91394305 0.67317605 1.2908216 0 1 0.58711904 1.3950014"/>
  </g>
  <g id="Ultralight-S" transform="matrix(1 0 0 1 516.35 696)">
   <path class="SFSymbolsPreviewWireframe" d="M19.7647-1.65282L66.9585-1.65282C73.4917-1.65282 76.9576-5.20946 76.9576-11.6416L76.9576-58.8594C76.9576-65.2915 73.4917-68.8482 66.9585-68.8482L19.7647-68.8482C13.2349-68.8482 9.76562-65.3823 9.76562-58.8594L9.76562-11.6416C9.76562-5.11864 13.2349-1.65282 19.7647-1.65282ZM19.8623-3.87405C14.6665-3.87405 11.9834-6.55031 11.9834-11.7564L11.9834-58.7446C11.9834-63.9541 14.6665-66.6269 19.8623-66.6269L66.8609-66.6269C71.875-66.6269 74.7397-63.9541 74.7397-58.7446L74.7397-11.7564C74.7397-6.55031 71.875-3.87405 66.8609-3.87405ZM57.1152-15.5965C58.2229-14.4989 60.0006-14.4989 61.0882-15.6166C62.1902-16.7142 62.1658-18.4618 61.0782-19.5551L29.7532-50.87C28.6844-51.9532 26.8923-51.982 25.7803-50.87C24.6927-49.7968 24.6927-47.9947 25.7803-46.9214ZM33.5998-28.0441L39.3738-28.0441C39.6254-28.0441 39.8151-27.9665 39.9947-27.8113L48.9844-19.8056C49.6026-19.2332 50.1723-18.9045 50.8855-18.9045C51.8685-18.9045 52.5054-19.6364 52.5054-20.6007L52.5054-49.8125C52.5054-50.7668 51.8685-51.5732 50.8654-51.5732C50.1523-51.5732 49.657-51.2057 48.9844-50.612L39.9947-42.5082C39.8151-42.3529 39.6254-42.3041 39.3738-42.3041L33.5998-42.3041C31.5117-42.3041 30.513-41.2378 30.513-39.0739L30.513-31.2211C30.513-29.0672 31.5261-28.0441 33.5998-28.0441ZM33.67-29.8796C32.795-29.8796 32.4632-30.2258 32.4632-31.1152L32.4632-39.2042C32.4632-40.098 32.795-40.4542 33.67-40.4542L39.726-40.4542C40.2862-40.4542 40.6668-40.5274 41.1207-40.9569L49.8511-48.9261C49.9819-49.0425 50.0939-49.1489 50.2779-49.1489C50.4532-49.1489 50.5796-49.0368 50.5796-48.8328L50.5796-21.6694C50.5796-21.4409 50.4532-21.3289 50.3023-21.3289C50.1659-21.3289 50.0538-21.3777 49.8654-21.5473L41.1207-29.377C40.6812-29.7676 40.2862-29.8796 39.726-29.8796ZM58.4213-16.8882C58.7927-16.5168 59.4208-16.5168 59.7821-16.8882C60.1722-17.2883 60.1679-17.8776 59.7821-18.2634L28.4472-49.5883C28.0902-49.9353 27.4621-49.9741 27.0763-49.5883C26.7006-49.2126 26.7006-48.5788 27.0763-48.2031Z" data-clipstroke-keyframes="0 4 0 0.5928535 1.4020302 0 0.09257108 0.5002824 1.5003021 0 0.15646498 0.43638852 1.5529215 0 0.34257746 0.25027606 1.7503247 0 0.40698385 0.18586963 1.803195 0 0.5892161 0.0036373704 1.9965427 0 0.6582512 0.93460226 1.0545794 0 0.8413037 0.7515498 1.2489142 0 0.9074289 0.68542457 1.3038812 0 1 0.5928535 1.401646"/>
  </g>
 </g>
 <g id="LayerTree">
  <g class="monochrome-0 multicolor-0:tintColor hierarchical-0:secondary"/>
  <g class="monochrome-1 multicolor-1:tintColor hierarchical-1:primary">
   <g class="shapeGroupLayer-0"/>
   <g class="shapeGroupLayer-1"/>
   <g class="shapeGroupLayer-2"/>
  </g>
 </g>
</svg>
